v -0.5  0.5  0.5
v  0.5  0.5  0.5
v  0.5 -0.5  0.5
v -0.5 -0.5  0.5
v -0.5  0.5 -0.5
v  0.5  0.5 -0.5
v  0.5 -0.5 -0.5
v -0.5 -0.5 -0.5
# 8 vertices

vt  0.0 0.0 0.000
vt  1.0 0.0 0.000
vt  1.0 1.0 0.000
vt  0.0 1.0 0.000
# 1339 texture vertices


vn  0  0  1
vn  0  1  0
vn  1  0  0
vn  0  0 -1
vn  0 -1  0
vn -1  0  0
# 6 vertex normals

g cube
s 1

f 1/4/1 4/1/1 2/3/1
f 2/3/1 4/1/1 3/2/1
f 1/1/2 6/3/2 5/4/2
f 1/1/2 2/2/2 6/3/2
f 2/4/3 3/1/3 6/3/3
f 3/1/3 7/2/3 6/3/3
f 3/3/5 4/4/5 7/2/5
f 4/4/5 8/1/5 7/2/5
f 1/3/6 5/4/6 8/1/6
f 1/3/6 8/1/6 4/2/6
f 5/3/4 6/4/4 7/1/4
f 5/3/4 7/1/4 8/2/4
# 12 faces
